# xmcd
#
# Track frame offsets:
#	183
#	11035
#	21558
#	38223
#	47518
#	57258
#	67708
#	83695
#	99163
#	112733
#	122225
#	133205
#	146560
#	160503
#	171235
#	187050
#	197920
#	209190
#	219785
#	231560
#
# Disc length: 3256 seconds
#
# Revision: 1
# Processed by: cddbd v1.5.1PL0 Copyright (c) Steve Scherf et al.
# Submitted via: audiograbber 1.83.01
#
DISCID=1e0cb614
DTITLE=Various Artist - Big Rig Blues Disc 1 of 2
DYEAR=1970
DGENRE=Country
TTITLE0=King Of The Road - 01 - Roger Miller
TTITLE1=Six Days On The Road - 02 - Dave Dudley
TTITLE2=Orange Blossom Special - 03 - Charlie McCoy
TTITLE3=Truck Drivin' Man - 04 - Lee Conway
TTITLE4=40 Miles Of Bad Road - 05 - Duanne Eddy
TTITLE5=Lonsome Number One - 06 - Don Gibson
TTITLE6=Highway 31 - 07 - Johnny Chester
TTITLE7=Hey Hello Highway - 08 - Dave Dudley
TTITLE8=It's Four In The Morning - 09 - Faron Young
TTITLE9=The Race Is On - 10 - George Jones
TTITLE10=Oh Lonesome Me - 11 - Don Gibson
TTITLE11=(Maggie) Theme From ' The Truckies' - 12 - Ken Brumby
TTITLE12=Phantom 309 - 13 - Dave Dudley
TTITLE13=Sixteen Tons - 14 - Frankie Laine
TTITLE14=Lonely Nights - 15 - Mickey Gilley
TTITLE15=Gotta Travel On - 16 - Billy J Kramer
TTITLE16=Truck Drivers Lament - 17 - The Hawking Brothers
TTITLE17=The Road Is Far - 18 - Lee Conway
TTITLE18=Mule Train - 19 - Frankie Laine
TTITLE19=Wolverton Mountain - 20 - Claude King
EXTD=
EXTT0=
EXTT1=
EXTT2=
EXTT3=
EXTT4=
EXTT5=
EXTT6=
EXTT7=
EXTT8=
EXTT9=
EXTT10=
EXTT11=
EXTT12=
EXTT13=
EXTT14=
EXTT15=
EXTT16=
EXTT17=
EXTT18=
EXTT19=
PLAYORDER=
